<svg xmlns="http://www.w3.org/2000/svg" xmlns:xlink="http://www.w3.org/1999/xlink" width="100" zoomAndPan="magnify" viewBox="0 0 75 50.999998" height="68" preserveAspectRatio="xMidYMid meet" version="1.0"><defs><g/><clipPath id="bdf8c1dc8d"><path d="M 10 0.480469 L 65.277344 0.480469 L 65.277344 50.730469 L 10 50.730469 Z M 10 0.480469 " clip-rule="nonzero"/></clipPath><clipPath id="4eb6316eaa"><path d="M 54 33 L 65.277344 33 L 65.277344 45 L 54 45 Z M 54 33 " clip-rule="nonzero"/></clipPath></defs><g fill="#ffffff" fill-opacity="1"><g transform="translate(35.79492, 27.374998)"><g><path d="M 1.265625 0.0625 C 1.054688 0.0625 0.875 0.0234375 0.71875 -0.046875 C 0.570312 -0.128906 0.457031 -0.242188 0.375 -0.390625 C 0.289062 -0.535156 0.25 -0.710938 0.25 -0.921875 C 0.25 -1.109375 0.289062 -1.265625 0.375 -1.390625 C 0.457031 -1.523438 0.582031 -1.632812 0.75 -1.71875 C 0.925781 -1.800781 1.148438 -1.863281 1.421875 -1.90625 C 1.617188 -1.9375 1.765625 -1.972656 1.859375 -2.015625 C 1.960938 -2.054688 2.03125 -2.097656 2.0625 -2.140625 C 2.101562 -2.191406 2.125 -2.253906 2.125 -2.328125 C 2.125 -2.421875 2.085938 -2.492188 2.015625 -2.546875 C 1.941406 -2.609375 1.820312 -2.640625 1.65625 -2.640625 C 1.476562 -2.640625 1.304688 -2.597656 1.140625 -2.515625 C 0.972656 -2.441406 0.832031 -2.335938 0.71875 -2.203125 L 0.65625 -2.203125 L 0.3125 -2.71875 C 0.476562 -2.894531 0.679688 -3.035156 0.921875 -3.140625 C 1.160156 -3.242188 1.414062 -3.296875 1.6875 -3.296875 C 2.113281 -3.296875 2.421875 -3.203125 2.609375 -3.015625 C 2.804688 -2.835938 2.90625 -2.582031 2.90625 -2.25 L 2.90625 -0.84375 C 2.90625 -0.695312 2.96875 -0.625 3.09375 -0.625 C 3.144531 -0.625 3.195312 -0.632812 3.25 -0.65625 L 3.28125 -0.640625 L 3.34375 -0.078125 C 3.300781 -0.046875 3.238281 -0.0195312 3.15625 0 C 3.070312 0.0195312 2.984375 0.03125 2.890625 0.03125 C 2.703125 0.03125 2.550781 -0.00390625 2.4375 -0.078125 C 2.332031 -0.160156 2.253906 -0.28125 2.203125 -0.4375 L 2.140625 -0.4375 C 1.984375 -0.101562 1.691406 0.0625 1.265625 0.0625 Z M 1.515625 -0.546875 C 1.703125 -0.546875 1.851562 -0.609375 1.96875 -0.734375 C 2.082031 -0.859375 2.140625 -1.035156 2.140625 -1.265625 L 2.140625 -1.59375 L 2.078125 -1.59375 C 2.023438 -1.5625 1.957031 -1.53125 1.875 -1.5 C 1.800781 -1.476562 1.691406 -1.453125 1.546875 -1.421875 C 1.367188 -1.390625 1.238281 -1.335938 1.15625 -1.265625 C 1.082031 -1.203125 1.046875 -1.101562 1.046875 -0.96875 C 1.046875 -0.832031 1.085938 -0.726562 1.171875 -0.65625 C 1.253906 -0.582031 1.367188 -0.546875 1.515625 -0.546875 Z M 1.515625 -0.546875 "/></g></g></g><g clip-path="url(#bdf8c1dc8d)"><path fill="#3f4142" d="M 15.613281 50.503906 C 14.945312 50.503906 14.25 50.375 13.609375 50.09375 C 10.988281 48.988281 9.777344 45.953125 10.882812 43.359375 L 24.765625 10.691406 C 24.996094 10.175781 25.277344 9.6875 25.664062 9.277344 L 25.792969 9.121094 C 26.949219 7.8125 28.695312 7.195312 30.417969 7.476562 C 32.140625 7.761719 33.605469 8.890625 34.324219 10.484375 L 41.109375 25.90625 L 54.992188 3.109375 C 55.8125 1.746094 57.226562 0.847656 58.820312 0.667969 C 60.414062 0.488281 61.980469 1.078125 63.085938 2.207031 L 63.421875 2.566406 C 64.320312 3.519531 64.835938 4.753906 64.859375 6.0625 L 65.117188 24.648438 C 65.167969 27.472656 62.882812 29.8125 60.054688 29.863281 C 57.226562 29.917969 54.886719 27.628906 54.835938 24.800781 L 54.8125 23.128906 L 44.785156 39.605469 C 43.785156 41.25 41.960938 42.175781 40.058594 42.046875 C 38.15625 41.917969 36.457031 40.738281 35.6875 38.988281 L 29.671875 25.367188 L 20.316406 47.367188 C 19.496094 49.320312 17.59375 50.503906 15.613281 50.503906 Z M 15.613281 50.503906 " fill-opacity="1" fill-rule="nonzero"/></g><g clip-path="url(#4eb6316eaa)"><path fill="#3f4142" d="M 65.21875 38.785156 C 65.21875 39.136719 65.1875 39.488281 65.117188 39.835938 C 65.046875 40.183594 64.945312 40.523438 64.808594 40.847656 C 64.675781 41.175781 64.507812 41.488281 64.3125 41.78125 C 64.113281 42.078125 63.890625 42.351562 63.640625 42.601562 C 63.390625 42.851562 63.117188 43.074219 62.820312 43.273438 C 62.527344 43.46875 62.214844 43.636719 61.886719 43.769531 C 61.5625 43.90625 61.222656 44.007812 60.875 44.078125 C 60.527344 44.148438 60.175781 44.179688 59.824219 44.179688 C 59.46875 44.179688 59.117188 44.148438 58.769531 44.078125 C 58.421875 44.007812 58.085938 43.90625 57.757812 43.769531 C 57.429688 43.636719 57.117188 43.46875 56.824219 43.273438 C 56.527344 43.074219 56.257812 42.851562 56.007812 42.601562 C 55.753906 42.351562 55.53125 42.078125 55.335938 41.78125 C 55.136719 41.488281 54.972656 41.175781 54.835938 40.847656 C 54.699219 40.523438 54.597656 40.183594 54.527344 39.835938 C 54.460938 39.488281 54.425781 39.136719 54.425781 38.785156 C 54.425781 38.429688 54.460938 38.078125 54.527344 37.730469 C 54.597656 37.382812 54.699219 37.046875 54.835938 36.71875 C 54.972656 36.390625 55.136719 36.078125 55.335938 35.785156 C 55.53125 35.492188 55.753906 35.21875 56.007812 34.96875 C 56.257812 34.714844 56.527344 34.492188 56.824219 34.296875 C 57.117188 34.097656 57.429688 33.933594 57.757812 33.796875 C 58.085938 33.660156 58.421875 33.558594 58.769531 33.488281 C 59.117188 33.421875 59.46875 33.386719 59.824219 33.386719 C 60.175781 33.386719 60.527344 33.421875 60.875 33.488281 C 61.222656 33.558594 61.5625 33.660156 61.886719 33.796875 C 62.214844 33.933594 62.527344 34.097656 62.820312 34.296875 C 63.117188 34.492188 63.390625 34.714844 63.640625 34.96875 C 63.890625 35.21875 64.113281 35.492188 64.3125 35.785156 C 64.507812 36.078125 64.675781 36.390625 64.808594 36.71875 C 64.945312 37.046875 65.046875 37.382812 65.117188 37.730469 C 65.1875 38.078125 65.21875 38.429688 65.21875 38.785156 Z M 65.21875 38.785156 " fill-opacity="1" fill-rule="nonzero"/></g></svg>