<svg xmlns="http://www.w3.org/2000/svg" xmlns:xlink="http://www.w3.org/1999/xlink" width="144" zoomAndPan="magnify" viewBox="0 0 108 70.499998" height="94" preserveAspectRatio="xMidYMid meet" version="1.0"><defs><g/><clipPath id="90d8622b60"><path d="M 33.113281 0 L 74.820312 0 L 74.820312 37.980469 L 33.113281 37.980469 Z M 33.113281 0 " clip-rule="nonzero"/></clipPath><clipPath id="d585aa43a3"><path d="M 66 24 L 74.820312 24 L 74.820312 33 L 66 33 Z M 66 24 " clip-rule="nonzero"/></clipPath><clipPath id="66169bb851"><path d="M 55 5 L 63.933594 5 L 63.933594 16 L 55 16 Z M 55 5 " clip-rule="nonzero"/></clipPath><clipPath id="7c244472bb"><rect x="0" width="64" y="0" height="21"/></clipPath><clipPath id="58ed92f9de"><rect x="0" width="38" y="0" height="12"/></clipPath></defs><g clip-path="url(#90d8622b60)"><path fill="#ffffff" d="M 37.507812 37.683594 C 37.003906 37.683594 36.484375 37.585938 36 37.375 C 34.023438 36.542969 33.113281 34.257812 33.945312 32.300781 L 44.402344 7.691406 C 44.574219 7.304688 44.789062 6.9375 45.078125 6.628906 L 45.175781 6.511719 C 46.046875 5.523438 47.363281 5.058594 48.660156 5.273438 C 49.957031 5.484375 51.0625 6.335938 51.605469 7.539062 L 56.714844 19.15625 L 67.171875 1.980469 C 67.789062 0.953125 68.855469 0.277344 70.054688 0.140625 C 71.257812 0.0078125 72.4375 0.453125 73.269531 1.304688 L 73.519531 1.574219 C 74.199219 2.289062 74.585938 3.21875 74.605469 4.207031 L 74.800781 18.207031 C 74.835938 20.335938 73.113281 22.097656 70.984375 22.136719 C 68.855469 22.175781 67.09375 20.453125 67.054688 18.320312 L 67.035156 17.0625 L 59.484375 29.472656 C 58.730469 30.714844 57.355469 31.410156 55.921875 31.3125 C 54.488281 31.214844 53.210938 30.324219 52.628906 29.007812 L 48.101562 18.75 L 41.050781 35.320312 C 40.433594 36.792969 39 37.683594 37.507812 37.683594 Z M 37.507812 37.683594 " fill-opacity="1" fill-rule="nonzero"/></g><g clip-path="url(#d585aa43a3)"><path fill="#ffffff" d="M 74.875 28.855469 C 74.875 29.121094 74.851562 29.386719 74.796875 29.648438 C 74.746094 29.910156 74.667969 30.164062 74.566406 30.410156 C 74.464844 30.65625 74.339844 30.890625 74.191406 31.113281 C 74.042969 31.335938 73.875 31.539062 73.6875 31.730469 C 73.496094 31.917969 73.292969 32.085938 73.070312 32.234375 C 72.847656 32.382812 72.613281 32.507812 72.367188 32.609375 C 72.121094 32.714844 71.867188 32.789062 71.605469 32.84375 C 71.34375 32.894531 71.078125 32.921875 70.8125 32.921875 C 70.542969 32.921875 70.277344 32.894531 70.015625 32.84375 C 69.753906 32.789062 69.5 32.714844 69.253906 32.609375 C 69.007812 32.507812 68.773438 32.382812 68.550781 32.234375 C 68.328125 32.085938 68.125 31.917969 67.9375 31.730469 C 67.746094 31.539062 67.578125 31.335938 67.429688 31.113281 C 67.28125 30.890625 67.15625 30.65625 67.054688 30.410156 C 66.953125 30.164062 66.875 29.910156 66.824219 29.648438 C 66.769531 29.386719 66.746094 29.121094 66.746094 28.855469 C 66.746094 28.585938 66.769531 28.324219 66.824219 28.0625 C 66.875 27.800781 66.953125 27.546875 67.054688 27.296875 C 67.15625 27.050781 67.28125 26.816406 67.429688 26.597656 C 67.578125 26.375 67.746094 26.167969 67.9375 25.980469 C 68.125 25.789062 68.328125 25.621094 68.550781 25.472656 C 68.773438 25.324219 69.007812 25.199219 69.253906 25.097656 C 69.5 24.996094 69.753906 24.917969 70.015625 24.867188 C 70.277344 24.816406 70.542969 24.789062 70.8125 24.789062 C 71.078125 24.789062 71.34375 24.816406 71.605469 24.867188 C 71.867188 24.917969 72.121094 24.996094 72.367188 25.097656 C 72.613281 25.199219 72.847656 25.324219 73.070312 25.472656 C 73.292969 25.621094 73.496094 25.789062 73.6875 25.980469 C 73.875 26.167969 74.042969 26.375 74.191406 26.597656 C 74.339844 26.816406 74.464844 27.050781 74.566406 27.296875 C 74.667969 27.546875 74.746094 27.800781 74.796875 28.0625 C 74.851562 28.324219 74.875 28.585938 74.875 28.855469 Z M 74.875 28.855469 " fill-opacity="1" fill-rule="nonzero"/></g><g transform="matrix(1, 0, 0, 1, 22, 42)"><g clip-path="url(#7c244472bb)"><g fill="#ffffff" fill-opacity="1"><g transform="translate(0.221442, 15.469557)"><g><path d="M 11.734375 -9.609375 L 11.734375 0 L 9.390625 0 L 9.390625 -5.765625 L 7.234375 0 L 5.359375 0 L 3.1875 -5.78125 L 3.1875 0 L 0.84375 0 L 0.84375 -9.609375 L 3.609375 -9.609375 L 6.3125 -2.953125 L 8.984375 -9.609375 Z M 11.734375 -9.609375 "/></g></g></g><g fill="#ffffff" fill-opacity="1"><g transform="translate(12.789059, 15.469557)"><g><path d="M 6.828125 -1.703125 L 3.25 -1.703125 L 2.671875 0 L 0.21875 0 L 3.703125 -9.609375 L 6.40625 -9.609375 L 9.875 0 L 7.40625 0 Z M 6.234375 -3.5 L 5.03125 -7.015625 L 3.859375 -3.5 Z M 6.234375 -3.5 "/></g></g></g><g fill="#ffffff" fill-opacity="1"><g transform="translate(22.878747, 15.469557)"><g><path d="M 9.4375 0 L 7.109375 0 L 3.1875 -5.921875 L 3.1875 0 L 0.84375 0 L 0.84375 -9.609375 L 3.1875 -9.609375 L 7.109375 -3.65625 L 7.109375 -9.609375 L 9.4375 -9.609375 Z M 9.4375 0 "/></g></g></g><g fill="#ffffff" fill-opacity="1"><g transform="translate(33.173789, 15.469557)"><g><path d="M 7.765625 -9.609375 L 7.765625 -7.734375 L 5.21875 -7.734375 L 5.21875 0 L 2.875 0 L 2.875 -7.734375 L 0.328125 -7.734375 L 0.328125 -9.609375 Z M 7.765625 -9.609375 "/></g></g></g><g fill="#ffffff" fill-opacity="1"><g transform="translate(41.264705, 15.469557)"><g><path d="M 5.75 0 L 3.75 -3.625 L 3.1875 -3.625 L 3.1875 0 L 0.84375 0 L 0.84375 -9.609375 L 4.78125 -9.609375 C 5.53125 -9.609375 6.171875 -9.472656 6.703125 -9.203125 C 7.242188 -8.941406 7.644531 -8.582031 7.90625 -8.125 C 8.175781 -7.664062 8.3125 -7.148438 8.3125 -6.578125 C 8.3125 -5.941406 8.128906 -5.375 7.765625 -4.875 C 7.410156 -4.375 6.878906 -4.019531 6.171875 -3.8125 L 8.390625 0 Z M 3.1875 -5.28125 L 4.640625 -5.28125 C 5.066406 -5.28125 5.382812 -5.382812 5.59375 -5.59375 C 5.8125 -5.800781 5.921875 -6.097656 5.921875 -6.484375 C 5.921875 -6.847656 5.8125 -7.132812 5.59375 -7.34375 C 5.382812 -7.5625 5.066406 -7.671875 4.640625 -7.671875 L 3.1875 -7.671875 Z M 3.1875 -5.28125 "/></g></g></g><g fill="#ffffff" fill-opacity="1"><g transform="translate(50.190724, 15.469557)"><g><path d="M 3.1875 -9.609375 L 3.1875 0 L 0.84375 0 L 0.84375 -9.609375 Z M 3.1875 -9.609375 "/></g></g></g><g clip-path="url(#66169bb851)"><g fill="#ffffff" fill-opacity="1"><g transform="translate(54.229335, 15.469557)"><g><path d="M 6.421875 0 L 3.1875 -4.25 L 3.1875 0 L 0.84375 0 L 0.84375 -9.609375 L 3.1875 -9.609375 L 3.1875 -5.390625 L 6.390625 -9.609375 L 9.140625 -9.609375 L 5.421875 -4.90625 L 9.28125 0 Z M 6.421875 0 "/></g></g></g></g></g></g><g transform="matrix(1, 0, 0, 1, 37, 57)"><g clip-path="url(#58ed92f9de)"><g fill="#ffffff" fill-opacity="1"><g transform="translate(1.322747, 8.388351)"><g><path d="M 1.34375 -0.59375 L 3.28125 -0.59375 L 3.28125 0 L 0.609375 0 L 0.609375 -5.546875 L 1.34375 -5.546875 Z M 1.34375 -0.59375 "/></g></g></g><g fill="#ffffff" fill-opacity="1"><g transform="translate(9.097587, 8.388351)"><g><path d="M 3.890625 -1.234375 L 1.46875 -1.234375 L 1.03125 0 L 0.265625 0 L 2.265625 -5.515625 L 3.109375 -5.515625 L 5.09375 0 L 4.328125 0 Z M 3.6875 -1.828125 L 2.6875 -4.625 L 1.671875 -1.828125 Z M 3.6875 -1.828125 "/></g></g></g><g fill="#ffffff" fill-opacity="1"><g transform="translate(18.795112, 8.388351)"><g><path d="M 3.390625 -2.859375 C 3.585938 -2.828125 3.769531 -2.742188 3.9375 -2.609375 C 4.101562 -2.472656 4.234375 -2.304688 4.328125 -2.109375 C 4.429688 -1.921875 4.484375 -1.710938 4.484375 -1.484375 C 4.484375 -1.203125 4.410156 -0.945312 4.265625 -0.71875 C 4.128906 -0.5 3.921875 -0.320312 3.640625 -0.1875 C 3.367188 -0.0625 3.050781 0 2.6875 0 L 0.609375 0 L 0.609375 -5.546875 L 2.59375 -5.546875 C 2.976562 -5.546875 3.300781 -5.484375 3.5625 -5.359375 C 3.820312 -5.234375 4.019531 -5.0625 4.15625 -4.84375 C 4.289062 -4.632812 4.359375 -4.398438 4.359375 -4.140625 C 4.359375 -3.804688 4.269531 -3.53125 4.09375 -3.3125 C 3.914062 -3.101562 3.679688 -2.953125 3.390625 -2.859375 Z M 1.34375 -3.15625 L 2.546875 -3.15625 C 2.890625 -3.15625 3.15625 -3.234375 3.34375 -3.390625 C 3.53125 -3.546875 3.625 -3.765625 3.625 -4.046875 C 3.625 -4.328125 3.53125 -4.546875 3.34375 -4.703125 C 3.15625 -4.867188 2.882812 -4.953125 2.53125 -4.953125 L 1.34375 -4.953125 Z M 2.609375 -0.59375 C 2.972656 -0.59375 3.253906 -0.675781 3.453125 -0.84375 C 3.660156 -1.019531 3.765625 -1.257812 3.765625 -1.5625 C 3.765625 -1.863281 3.65625 -2.101562 3.4375 -2.28125 C 3.226562 -2.457031 2.945312 -2.546875 2.59375 -2.546875 L 1.34375 -2.546875 L 1.34375 -0.59375 Z M 2.609375 -0.59375 "/></g></g></g><g fill="#ffffff" fill-opacity="1"><g transform="translate(28.007995, 8.388351)"><g><path d="M 2.375 0.0625 C 2.007812 0.0625 1.679688 0 1.390625 -0.125 C 1.097656 -0.257812 0.867188 -0.441406 0.703125 -0.671875 C 0.546875 -0.910156 0.460938 -1.179688 0.453125 -1.484375 L 1.21875 -1.484375 C 1.25 -1.222656 1.359375 -1.003906 1.546875 -0.828125 C 1.734375 -0.648438 2.007812 -0.5625 2.375 -0.5625 C 2.71875 -0.5625 2.988281 -0.644531 3.1875 -0.8125 C 3.382812 -0.988281 3.484375 -1.210938 3.484375 -1.484375 C 3.484375 -1.691406 3.425781 -1.859375 3.3125 -1.984375 C 3.195312 -2.117188 3.050781 -2.222656 2.875 -2.296875 C 2.695312 -2.367188 2.457031 -2.441406 2.15625 -2.515625 C 1.789062 -2.617188 1.5 -2.71875 1.28125 -2.8125 C 1.0625 -2.90625 0.875 -3.050781 0.71875 -3.25 C 0.5625 -3.457031 0.484375 -3.734375 0.484375 -4.078125 C 0.484375 -4.378906 0.5625 -4.644531 0.71875 -4.875 C 0.875 -5.113281 1.085938 -5.296875 1.359375 -5.421875 C 1.640625 -5.546875 1.960938 -5.609375 2.328125 -5.609375 C 2.847656 -5.609375 3.269531 -5.476562 3.59375 -5.21875 C 3.925781 -4.957031 4.113281 -4.613281 4.15625 -4.1875 L 3.359375 -4.1875 C 3.335938 -4.40625 3.226562 -4.59375 3.03125 -4.75 C 2.832031 -4.914062 2.570312 -5 2.25 -5 C 1.945312 -5 1.695312 -4.921875 1.5 -4.765625 C 1.3125 -4.609375 1.21875 -4.390625 1.21875 -4.109375 C 1.21875 -3.898438 1.273438 -3.734375 1.390625 -3.609375 C 1.503906 -3.484375 1.644531 -3.382812 1.8125 -3.3125 C 1.976562 -3.25 2.210938 -3.175781 2.515625 -3.09375 C 2.878906 -2.988281 3.171875 -2.882812 3.390625 -2.78125 C 3.617188 -2.6875 3.8125 -2.535156 3.96875 -2.328125 C 4.132812 -2.128906 4.21875 -1.859375 4.21875 -1.515625 C 4.21875 -1.242188 4.144531 -0.988281 4 -0.75 C 3.851562 -0.507812 3.640625 -0.3125 3.359375 -0.15625 C 3.078125 -0.0078125 2.75 0.0625 2.375 0.0625 Z M 2.375 0.0625 "/></g></g></g></g></g></svg>