<svg xmlns="http://www.w3.org/2000/svg" xmlns:xlink="http://www.w3.org/1999/xlink" width="160" zoomAndPan="magnify" viewBox="0 0 120 30.000001" height="40" preserveAspectRatio="xMidYMid meet" version="1.0"><defs><g/><clipPath id="d8fb5f3a4f"><path d="M 5 2.457031 L 30.96875 2.457031 L 30.96875 26.40625 L 5 26.40625 Z M 5 2.457031 " clip-rule="nonzero"/></clipPath><clipPath id="ea919b454f"><path d="M 25 18 L 30.96875 18 L 30.96875 24 L 25 24 Z M 25 18 " clip-rule="nonzero"/></clipPath><clipPath id="01dc7c608e"><path d="M 53 4 L 62.484375 4 L 62.484375 15 L 53 15 Z M 53 4 " clip-rule="nonzero"/></clipPath><clipPath id="5babaa59b3"><rect x="0" width="63" y="0" height="20"/></clipPath><clipPath id="825bb3c10f"><rect x="0" width="36" y="0" height="12"/></clipPath></defs><g clip-path="url(#d8fb5f3a4f)"><path fill="#3f4142" d="M 7.597656 26.117188 C 7.28125 26.117188 6.953125 26.054688 6.648438 25.921875 C 5.410156 25.398438 4.839844 23.964844 5.363281 22.738281 L 11.925781 7.289062 C 12.035156 7.046875 12.167969 6.8125 12.351562 6.621094 L 12.410156 6.546875 C 12.957031 5.925781 13.785156 5.636719 14.601562 5.769531 C 15.414062 5.902344 16.105469 6.4375 16.449219 7.191406 L 19.65625 14.484375 L 26.21875 3.703125 C 26.609375 3.058594 27.277344 2.632812 28.03125 2.546875 C 28.785156 2.460938 29.527344 2.742188 30.050781 3.277344 L 30.207031 3.445312 C 30.632812 3.898438 30.875 4.480469 30.886719 5.101562 L 31.011719 13.886719 C 31.035156 15.226562 29.953125 16.332031 28.613281 16.355469 C 27.277344 16.378906 26.171875 15.296875 26.148438 13.960938 L 26.136719 13.171875 L 21.394531 20.964844 C 20.921875 21.742188 20.058594 22.179688 19.15625 22.117188 C 18.257812 22.058594 17.457031 21.496094 17.089844 20.671875 L 14.246094 14.230469 L 9.824219 24.632812 C 9.433594 25.558594 8.535156 26.117188 7.597656 26.117188 Z M 7.597656 26.117188 " fill-opacity="1" fill-rule="nonzero"/></g><g clip-path="url(#ea919b454f)"><path fill="#3f4142" d="M 31.058594 20.574219 C 31.058594 20.914062 30.992188 21.238281 30.863281 21.550781 C 30.734375 21.863281 30.550781 22.140625 30.3125 22.378906 C 30.070312 22.617188 29.796875 22.804688 29.484375 22.933594 C 29.167969 23.0625 28.84375 23.125 28.503906 23.125 C 28.167969 23.125 27.839844 23.0625 27.527344 22.933594 C 27.214844 22.804688 26.941406 22.617188 26.699219 22.378906 C 26.460938 22.140625 26.277344 21.863281 26.148438 21.550781 C 26.019531 21.238281 25.953125 20.914062 25.953125 20.574219 C 25.953125 20.234375 26.019531 19.910156 26.148438 19.597656 C 26.277344 19.285156 26.460938 19.007812 26.699219 18.769531 C 26.941406 18.53125 27.214844 18.34375 27.527344 18.214844 C 27.839844 18.085938 28.167969 18.023438 28.503906 18.023438 C 28.84375 18.023438 29.167969 18.085938 29.484375 18.214844 C 29.796875 18.34375 30.070312 18.53125 30.3125 18.769531 C 30.550781 19.007812 30.734375 19.285156 30.863281 19.597656 C 30.992188 19.910156 31.058594 20.234375 31.058594 20.574219 Z M 31.058594 20.574219 " fill-opacity="1" fill-rule="nonzero"/></g><g transform="matrix(1, 0, 0, 1, 37, 2)"><g clip-path="url(#5babaa59b3)"><g fill="#3f4142" fill-opacity="1"><g transform="translate(0.45714, 14.261857)"><g><path d="M 11.4375 -9.375 L 11.4375 0 L 9.15625 0 L 9.15625 -5.625 L 7.0625 0 L 5.21875 0 L 3.109375 -5.625 L 3.109375 0 L 0.828125 0 L 0.828125 -9.375 L 3.515625 -9.375 L 6.15625 -2.875 L 8.75 -9.375 Z M 11.4375 -9.375 "/></g></g></g><g fill="#3f4142" fill-opacity="1"><g transform="translate(12.705607, 14.261857)"><g><path d="M 6.65625 -1.65625 L 3.15625 -1.65625 L 2.609375 0 L 0.21875 0 L 3.609375 -9.375 L 6.25 -9.375 L 9.640625 0 L 7.21875 0 Z M 6.078125 -3.421875 L 4.90625 -6.84375 L 3.765625 -3.421875 Z M 6.078125 -3.421875 "/></g></g></g><g fill="#3f4142" fill-opacity="1"><g transform="translate(22.539072, 14.261857)"><g><path d="M 9.203125 0 L 6.921875 0 L 3.109375 -5.78125 L 3.109375 0 L 0.828125 0 L 0.828125 -9.375 L 3.109375 -9.375 L 6.921875 -3.5625 L 6.921875 -9.375 L 9.203125 -9.375 Z M 9.203125 0 "/></g></g></g><g fill="#3f4142" fill-opacity="1"><g transform="translate(32.572676, 14.261857)"><g><path d="M 7.5625 -9.375 L 7.5625 -7.546875 L 5.078125 -7.546875 L 5.078125 0 L 2.796875 0 L 2.796875 -7.546875 L 0.3125 -7.546875 L 0.3125 -9.375 Z M 7.5625 -9.375 "/></g></g></g><g fill="#3f4142" fill-opacity="1"><g transform="translate(40.458127, 14.261857)"><g><path d="M 5.609375 0 L 3.65625 -3.53125 L 3.109375 -3.53125 L 3.109375 0 L 0.828125 0 L 0.828125 -9.375 L 4.65625 -9.375 C 5.394531 -9.375 6.023438 -9.242188 6.546875 -8.984375 C 7.066406 -8.722656 7.453125 -8.367188 7.703125 -7.921875 C 7.960938 -7.472656 8.09375 -6.972656 8.09375 -6.421875 C 8.09375 -5.796875 7.914062 -5.238281 7.5625 -4.75 C 7.21875 -4.257812 6.703125 -3.910156 6.015625 -3.703125 L 8.1875 0 Z M 3.109375 -5.15625 L 4.53125 -5.15625 C 4.945312 -5.15625 5.257812 -5.253906 5.46875 -5.453125 C 5.675781 -5.660156 5.78125 -5.953125 5.78125 -6.328125 C 5.78125 -6.679688 5.675781 -6.957031 5.46875 -7.15625 C 5.257812 -7.363281 4.945312 -7.46875 4.53125 -7.46875 L 3.109375 -7.46875 Z M 3.109375 -5.15625 "/></g></g></g><g fill="#3f4142" fill-opacity="1"><g transform="translate(49.157472, 14.261857)"><g><path d="M 3.109375 -9.375 L 3.109375 0 L 0.828125 0 L 0.828125 -9.375 Z M 3.109375 -9.375 "/></g></g></g><g clip-path="url(#01dc7c608e)"><g fill="#3f4142" fill-opacity="1"><g transform="translate(53.093525, 14.261857)"><g><path d="M 6.265625 0 L 3.109375 -4.140625 L 3.109375 0 L 0.828125 0 L 0.828125 -9.375 L 3.109375 -9.375 L 3.109375 -5.25 L 6.234375 -9.375 L 8.90625 -9.375 L 5.28125 -4.78125 L 9.046875 0 Z M 6.265625 0 "/></g></g></g></g></g></g><g transform="matrix(1, 0, 0, 1, 53, 15)"><g clip-path="url(#825bb3c10f)"><g fill="#3f4142" fill-opacity="1"><g transform="translate(0.51246, 8.85052)"><g><path d="M 1.296875 -0.578125 L 3.1875 -0.578125 L 3.1875 0 L 0.59375 0 L 0.59375 -5.40625 L 1.296875 -5.40625 Z M 1.296875 -0.578125 "/></g></g></g><g fill="#3f4142" fill-opacity="1"><g transform="translate(8.089861, 8.85052)"><g><path d="M 3.796875 -1.203125 L 1.4375 -1.203125 L 1 0 L 0.25 0 L 2.203125 -5.375 L 3.015625 -5.375 L 4.96875 0 L 4.21875 0 Z M 3.59375 -1.78125 L 2.609375 -4.5 L 1.640625 -1.78125 Z M 3.59375 -1.78125 "/></g></g></g><g fill="#3f4142" fill-opacity="1"><g transform="translate(17.541122, 8.85052)"><g><path d="M 3.296875 -2.78125 C 3.492188 -2.75 3.671875 -2.664062 3.828125 -2.53125 C 3.992188 -2.40625 4.125 -2.25 4.21875 -2.0625 C 4.320312 -1.875 4.375 -1.671875 4.375 -1.453125 C 4.375 -1.171875 4.300781 -0.921875 4.15625 -0.703125 C 4.019531 -0.484375 3.816406 -0.3125 3.546875 -0.1875 C 3.285156 -0.0625 2.972656 0 2.609375 0 L 0.59375 0 L 0.59375 -5.40625 L 2.53125 -5.40625 C 2.894531 -5.40625 3.207031 -5.34375 3.46875 -5.21875 C 3.726562 -5.09375 3.921875 -4.925781 4.046875 -4.71875 C 4.179688 -4.519531 4.25 -4.289062 4.25 -4.03125 C 4.25 -3.707031 4.160156 -3.441406 3.984375 -3.234375 C 3.816406 -3.023438 3.585938 -2.875 3.296875 -2.78125 Z M 1.296875 -3.0625 L 2.484375 -3.0625 C 2.816406 -3.0625 3.070312 -3.140625 3.25 -3.296875 C 3.4375 -3.453125 3.53125 -3.664062 3.53125 -3.9375 C 3.53125 -4.21875 3.4375 -4.4375 3.25 -4.59375 C 3.070312 -4.75 2.8125 -4.828125 2.46875 -4.828125 L 1.296875 -4.828125 Z M 2.546875 -0.578125 C 2.898438 -0.578125 3.175781 -0.660156 3.375 -0.828125 C 3.570312 -0.992188 3.671875 -1.222656 3.671875 -1.515625 C 3.671875 -1.816406 3.566406 -2.050781 3.359375 -2.21875 C 3.148438 -2.394531 2.875 -2.484375 2.53125 -2.484375 L 1.296875 -2.484375 L 1.296875 -0.578125 Z M 2.546875 -0.578125 "/></g></g></g><g fill="#3f4142" fill-opacity="1"><g transform="translate(26.520048, 8.85052)"><g><path d="M 2.3125 0.046875 C 1.957031 0.046875 1.640625 -0.015625 1.359375 -0.140625 C 1.078125 -0.265625 0.851562 -0.4375 0.6875 -0.65625 C 0.53125 -0.882812 0.445312 -1.144531 0.4375 -1.4375 L 1.1875 -1.4375 C 1.21875 -1.1875 1.320312 -0.972656 1.5 -0.796875 C 1.6875 -0.628906 1.957031 -0.546875 2.3125 -0.546875 C 2.644531 -0.546875 2.90625 -0.628906 3.09375 -0.796875 C 3.289062 -0.960938 3.390625 -1.175781 3.390625 -1.4375 C 3.390625 -1.644531 3.332031 -1.8125 3.21875 -1.9375 C 3.101562 -2.070312 2.960938 -2.171875 2.796875 -2.234375 C 2.628906 -2.304688 2.398438 -2.378906 2.109375 -2.453125 C 1.753906 -2.546875 1.46875 -2.640625 1.25 -2.734375 C 1.039062 -2.828125 0.859375 -2.972656 0.703125 -3.171875 C 0.546875 -3.367188 0.46875 -3.632812 0.46875 -3.96875 C 0.46875 -4.269531 0.539062 -4.53125 0.6875 -4.75 C 0.84375 -4.976562 1.054688 -5.15625 1.328125 -5.28125 C 1.597656 -5.40625 1.910156 -5.46875 2.265625 -5.46875 C 2.765625 -5.46875 3.175781 -5.34375 3.5 -5.09375 C 3.820312 -4.84375 4.003906 -4.503906 4.046875 -4.078125 L 3.28125 -4.078125 C 3.25 -4.285156 3.140625 -4.46875 2.953125 -4.625 C 2.765625 -4.78125 2.507812 -4.859375 2.1875 -4.859375 C 1.894531 -4.859375 1.65625 -4.78125 1.46875 -4.625 C 1.28125 -4.476562 1.1875 -4.269531 1.1875 -4 C 1.1875 -3.800781 1.242188 -3.640625 1.359375 -3.515625 C 1.472656 -3.390625 1.609375 -3.296875 1.765625 -3.234375 C 1.929688 -3.171875 2.160156 -3.097656 2.453125 -3.015625 C 2.804688 -2.921875 3.09375 -2.820312 3.3125 -2.71875 C 3.53125 -2.625 3.71875 -2.476562 3.875 -2.28125 C 4.03125 -2.082031 4.109375 -1.8125 4.109375 -1.46875 C 4.109375 -1.207031 4.035156 -0.957031 3.890625 -0.71875 C 3.753906 -0.488281 3.550781 -0.300781 3.28125 -0.15625 C 3.007812 -0.0195312 2.6875 0.046875 2.3125 0.046875 Z M 2.3125 0.046875 "/></g></g></g></g></g></svg>