<svg xmlns="http://www.w3.org/2000/svg" xmlns:xlink="http://www.w3.org/1999/xlink" width="92" zoomAndPan="magnify" viewBox="0 0 69 68.999997" height="92" preserveAspectRatio="xMidYMid meet" version="1.0"><defs><clipPath id="40c4bc0555"><path d="M 6.898438 20 L 62.398438 20 L 62.398438 49 L 6.898438 49 Z M 6.898438 20 " clip-rule="nonzero"/></clipPath></defs><rect x="-6.9" width="82.8" fill="#ffffff" y="-6.9" height="82.799996" fill-opacity="1"/><rect x="-6.9" width="82.8" fill="#ffffff" y="-6.9" height="82.799996" fill-opacity="1"/><path fill="#ffffff" d="M 68.769531 0 L 0 0 L 0 68.769531 L 68.769531 68.769531 Z M 68.769531 0 " fill-opacity="1" fill-rule="nonzero"/><g clip-path="url(#40c4bc0555)"><path fill="#ea4b71" d="M 62.398438 26.324219 C 62.398438 29.390625 59.851562 31.875 56.707031 31.875 C 54.054688 31.875 51.828125 30.105469 51.195312 27.710938 L 43.246094 27.710938 C 41.855469 27.710938 40.667969 28.691406 40.441406 30.03125 L 40.207031 31.402344 C 39.980469 32.707031 39.363281 33.789062 38.355469 34.648438 C 39.308594 35.46875 39.984375 36.601562 40.207031 37.898438 L 40.4375 39.269531 C 40.683594 40.617188 41.878906 41.605469 43.25 41.585938 L 45.503906 41.585938 C 46.136719 39.195312 48.367188 37.425781 51.019531 37.425781 C 54.164062 37.425781 56.707031 39.910156 56.707031 42.976562 C 56.707031 46.039062 54.160156 48.523438 51.019531 48.523438 C 48.367188 48.523438 46.136719 46.757812 45.503906 44.363281 L 43.25 44.363281 C 40.464844 44.363281 38.09375 42.402344 37.636719 39.726562 L 37.402344 38.355469 C 37.15625 37.007812 35.964844 36.023438 34.59375 36.039062 L 32.269531 36.039062 C 31.554688 38.3125 29.386719 39.96875 26.820312 39.96875 C 24.253906 39.96875 22.082031 38.3125 21.375 36.039062 L 18.039062 36.039062 C 17.328125 38.3125 15.15625 39.96875 12.59375 39.96875 C 9.449219 39.96875 6.898438 37.484375 6.898438 34.417969 C 6.898438 31.355469 9.449219 28.867188 12.59375 28.867188 C 15.328125 28.867188 17.617188 30.753906 18.160156 33.261719 L 21.253906 33.261719 C 21.800781 30.753906 24.085938 28.867188 26.820312 28.867188 C 29.558594 28.867188 31.84375 30.753906 32.390625 33.261719 L 34.59375 33.261719 C 35.980469 33.261719 37.171875 32.28125 37.398438 30.941406 L 37.632812 29.574219 C 38.089844 26.898438 40.464844 24.9375 43.246094 24.9375 L 51.195312 24.9375 C 51.828125 22.542969 54.054688 20.773438 56.707031 20.773438 C 59.851562 20.773438 62.398438 23.261719 62.398438 26.324219 Z M 59.554688 26.324219 C 59.554688 27.859375 58.277344 29.101562 56.707031 29.101562 C 55.132812 29.101562 53.863281 27.859375 53.863281 26.324219 C 53.863281 24.792969 55.132812 23.550781 56.707031 23.550781 C 58.277344 23.550781 59.554688 24.792969 59.554688 26.324219 Z M 12.589844 37.195312 C 14.164062 37.195312 15.433594 35.953125 15.433594 34.417969 C 15.433594 32.886719 14.164062 31.644531 12.589844 31.644531 C 11.019531 31.644531 9.746094 32.886719 9.746094 34.417969 C 9.746094 35.953125 11.015625 37.195312 12.589844 37.195312 Z M 26.820312 37.195312 C 28.390625 37.195312 29.667969 35.953125 29.667969 34.417969 C 29.667969 32.886719 28.394531 31.644531 26.820312 31.644531 C 25.25 31.644531 23.976562 32.886719 23.976562 34.417969 C 23.976562 35.953125 25.246094 37.195312 26.820312 37.195312 Z M 51.011719 45.75 C 52.585938 45.75 53.859375 44.507812 53.859375 42.976562 C 53.859375 41.441406 52.585938 40.199219 51.011719 40.199219 C 49.441406 40.199219 48.167969 41.441406 48.167969 42.976562 C 48.167969 44.507812 49.441406 45.75 51.011719 45.75 Z M 51.011719 45.75 " fill-opacity="1" fill-rule="evenodd"/></g></svg>